<?xml version="1.0" standalone="no"?>
<!DOCTYPE svg PUBLIC "-//W3C//DTD SVG 20010904//EN"
 "http://www.w3.org/TR/2001/REC-SVG-20010904/DTD/svg10.dtd">
<svg version="1.0" xmlns="http://www.w3.org/2000/svg"
 width="143.000000pt" height="189.000000pt" viewBox="0 0 143.000000 189.000000"
 preserveAspectRatio="xMidYMid meet">

<g transform="translate(0.000000,189.000000) scale(0.100000,-0.100000)"
fill="#000000" stroke="none">
<path d="M0 945 l0 -945 715 0 715 0 0 943 0 942 -126 3 c-83 2 -130 0 -139
-8 -9 -7 -15 -8 -20 0 -4 6 -65 10 -166 10 l-159 0 0 -35 c0 -29 -4 -35 -21
-35 -37 0 -127 -30 -164 -56 -20 -13 -39 -24 -44 -24 -4 0 -23 12 -42 26 -46
34 -74 45 -138 53 -51 6 -55 8 -63 39 l-9 32 -169 0 -170 0 0 -945z m1005 675
c9 0 15 -25 20 -84 7 -94 -5 -158 -36 -184 -26 -22 -43 -63 -30 -72 14 -8 -28
-55 -59 -65 -53 -18 -200 2 -200 26 0 4 -7 9 -15 13 -12 4 -13 2 -2 -16 16
-29 33 -48 44 -48 4 0 19 -9 33 -20 14 -11 41 -20 60 -21 l35 -1 -27 -10 c-31
-11 -99 7 -155 42 l-33 20 0 87 c0 92 -4 105 -33 116 -31 11 -41 51 -27 102
14 49 25 57 35 24 5 -15 2 -25 -9 -31 -9 -5 -16 -19 -16 -31 l0 -21 16 22 c18
27 31 28 36 5 3 -10 5 6 6 35 2 60 25 102 56 102 18 0 16 -3 -11 -22 -39 -28
-42 -38 -8 -32 18 3 25 0 25 -11 0 -9 11 -20 25 -25 14 -5 25 -14 25 -20 0
-14 43 -13 58 2 7 7 12 24 12 39 0 20 -7 30 -30 39 -16 7 -30 16 -30 21 0 9
47 13 105 10 17 -1 44 3 60 8 17 5 36 7 43 5 8 -2 19 -4 27 -4z m55 -240 c0
-23 -36 -64 -48 -56 -15 9 6 56 25 56 10 0 12 7 8 23 -5 17 -4 19 4 7 6 -8 11
-22 11 -30z m-690 -8 c30 -18 53 -44 70 -75 l25 -47 76 0 c62 0 78 -3 83 -16
6 -15 -3 -16 -74 -11 -78 5 -80 4 -80 -18 0 -12 -5 -36 -10 -52 -11 -31 -37
-43 -125 -59 -22 -4 -62 -15 -88 -25 -68 -27 -85 -24 -127 20 -125 131 -22
335 160 316 25 -3 65 -18 90 -33z m246 -19 c30 -40 3 -93 -48 -93 -25 0 -28 3
-28 35 0 24 -6 37 -19 45 -18 9 -20 6 -23 -32 -4 -53 -22 -56 -26 -5 -2 22
-10 41 -18 44 -35 13 -7 23 67 23 66 0 84 -3 95 -17z m-36 -188 c0 -10 -60
-35 -82 -35 -20 1 -18 3 12 20 33 18 70 26 70 15z"/>
<path d="M887 1532 c-10 -10 -17 -28 -17 -40 0 -23 34 -47 51 -36 6 3 25 8 42
10 49 7 57 12 57 33 0 44 -100 69 -133 33z"/>
<path d="M790 1403 c0 -11 50 -33 72 -33 10 0 18 7 18 15 0 11 -7 14 -24 9
-13 -3 -27 -1 -30 5 -8 12 -36 15 -36 4z"/>
<path d="M770 1331 c8 -5 44 -11 80 -14 l65 -5 -50 13 c-58 15 -118 19 -95 6z"/>
<path d="M810 1286 c0 -2 7 -6 15 -10 8 -3 15 -1 15 4 0 6 -7 10 -15 10 -8 0
-15 -2 -15 -4z"/>
<path d="M201 1264 c-29 -37 -27 -75 7 -107 79 -76 195 31 117 108 -35 36 -96
35 -124 -1z"/>
<path d="M570 1314 c0 -14 4 -23 10 -19 6 3 10 15 10 26 0 10 -4 19 -10 19 -5
0 -10 -12 -10 -26z"/>
<path d="M392 1878 c3 -7 28 -16 56 -19 33 -4 70 -18 99 -37 43 -28 49 -30 65
-16 24 22 87 43 131 44 30 0 37 4 37 20 0 19 -7 20 -196 20 -152 0 -195 -3
-192 -12z"/>
</g>
</svg>
